#N canvas 603 349 450 300 10;
#X msg 154 54 bang;
#X obj 237 107 delay 250;
#X msg 154 121 1 100;
#X obj 154 175 line;
#X msg 237 142 0 250;
#X obj 154 28 inlet;
#X obj 154 234 outlet;
#X connect 0 0 2 0;
#X connect 0 0 1 0;
#X connect 1 0 4 0;
#X connect 2 0 3 0;
#X connect 3 0 6 0;
#X connect 4 0 3 0;
#X connect 5 0 0 0;
