#N canvas 0 22 671 423 10;
#X obj 160 124 bng 15 250 50 0 empty empty empty 17 7 0 10 -262144
-1 -1;
#X obj 109 142 hsl 70 10 30 0 0 0 empty empty empty -2 -8 0 10 -262144
-1 -1 6900 1;
#X obj 289 282 textfile;
#X msg 386 181 rewind;
#X msg 354 244 bang;
#X msg 480 14 1;
#X msg 517 13 0;
#X obj 481 92 metro 1;
#X obj 139 210 / 127;
#X obj 139 235 * 30;
#X obj 160 105 tgl 15 0 empty empty empty 17 7 0 10 -262144 -1 -1 0
1;
#X obj 289 335 outlet;
#X msg 557 44 set 1;
#X obj 415 -37 t b b b;
#X obj 449 338 outlet;
#X text 106 124 PLAY -->;
#X msg 307 39 read dsdr_filt.txt;
#X obj 164 -2 inlet;
#X obj 91 -1 r slider;
#X obj 76 219 s slider2;
#X connect 0 0 13 0;
#X connect 1 0 8 0;
#X connect 1 0 19 0;
#X connect 2 0 11 0;
#X connect 2 1 6 0;
#X connect 3 0 2 0;
#X connect 4 0 2 0;
#X connect 5 0 7 0;
#X connect 5 0 10 0;
#X connect 5 0 12 0;
#X connect 6 0 7 0;
#X connect 6 0 10 0;
#X connect 6 0 14 0;
#X connect 7 0 4 0;
#X connect 8 0 9 0;
#X connect 9 0 7 1;
#X connect 10 0 7 0;
#X connect 12 0 10 0;
#X connect 13 0 5 0;
#X connect 13 1 3 0;
#X connect 13 2 16 0;
#X connect 16 0 2 0;
#X connect 17 0 0 0;
#X connect 18 0 1 0;
#X coords 0 -1 1 1 85 60 1 100 100;
