#N canvas 527 177 450 300 10;
#X obj 206 140 expr if(abs($f1 > $f2) \, $f1 \, 0);
#X obj 257 205 spigot;
#X msg 212 182 bang;
#X floatatom 488 95 5 0 0 0 - - -;
#X floatatom 498 105 5 0 0 0 - - -;
#X floatatom 508 115 5 0 0 0 - - -;
#X floatatom 488 95 5 0 0 0 - - -;
#X floatatom 108 127 5 0 0 0 - - -;
#X obj 206 87 inlet;
#X obj 257 238 outlet;
#X connect 0 0 1 1;
#X connect 0 0 2 0;
#X connect 1 0 9 0;
#X connect 2 0 1 0;
#X connect 7 0 0 1;
#X connect 8 0 0 0;
#X coords 0 -1 1 1 50 50 1 100 100;
